<svg viewBox="0 0 46 46" xmlns="http://www.w3.org/2000/svg" xmlns:xlink="http://www.w3.org/1999/xlink" width="46.000000" height="46.000000" fill="none">
	<rect id="fi_4202470" width="46.000000" height="46.000000" x="0.000000" y="0.000000" fill="rgb(255,255,255)" fill-opacity="0" />
	<g id="Layer 2">
		<path id="Vector" d="M23 1.91699C18.9119 1.92576 14.9598 3.38614 11.8483 6.03777C8.73676 8.68939 6.66811 12.3599 6.01116 16.3949C5.3542 20.4299 6.15163 24.567 8.26128 28.0687C10.3709 31.5704 13.6556 34.2091 17.5298 35.5142L21.2846 43.0237C21.4435 43.3427 21.6883 43.611 21.9913 43.7985C22.2943 43.9861 22.6436 44.0854 23 44.0854C23.3564 44.0854 23.7057 43.9861 24.0087 43.7985C24.3117 43.611 24.5564 43.3427 24.7154 43.0237L28.4702 35.5142C32.3443 34.2091 35.6291 31.5704 37.7387 28.0687C39.8483 24.567 40.6458 20.4299 39.9888 16.3949C39.3319 12.3599 37.2632 8.68939 34.1517 6.03777C31.0402 3.38614 27.0881 1.92576 23 1.91699ZM23 26.8337C21.4837 26.8337 20.0014 26.384 18.7406 25.5416C17.4798 24.6992 16.4972 23.5018 15.9169 22.1009C15.3366 20.7 15.1848 19.1585 15.4806 17.6713C15.7765 16.1841 16.5066 14.818 17.5788 13.7458C18.651 12.6736 20.0171 11.9435 21.5043 11.6476C22.9915 11.3518 24.533 11.5036 25.9339 12.0839C27.3348 12.6642 28.5322 13.6468 29.3746 14.9076C30.217 16.1684 30.6667 17.6507 30.6667 19.167C30.6667 21.2003 29.8589 23.1504 28.4211 24.5881C26.9834 26.0259 25.0333 26.8337 23 26.8337Z" fill="rgb(66.3746,100.956,255)" fill-rule="nonzero" />
	</g>
</svg>
