<svg viewBox="0 0 28 28" xmlns="http://www.w3.org/2000/svg" xmlns:xlink="http://www.w3.org/1999/xlink" width="28.000000" height="28.000000" fill="none">
	<rect id="fi_2722987" width="28.000000" height="28.000000" x="0.000000" y="0.000000" fill="rgb(255,255,255)" fill-opacity="0" />
	<g id="16">
		<path id="Vector" d="M14.0001 18.6667C13.8465 18.6676 13.6943 18.6382 13.5522 18.5801C13.41 18.5221 13.2807 18.4365 13.1717 18.3284L6.17172 11.3284C5.95203 11.1087 5.82861 10.8107 5.82861 10.5001C5.82861 10.1894 5.95203 9.89141 6.17172 9.67172C6.39141 9.45203 6.68937 9.32861 7.00005 9.32861C7.31074 9.32861 7.6087 9.45203 7.82839 9.67172L14.0001 15.8551L20.1717 9.68339C20.3949 9.49226 20.682 9.39238 20.9756 9.40372C21.2692 9.41506 21.5478 9.53679 21.7555 9.74456C21.9633 9.95234 22.085 10.2309 22.0964 10.5245C22.1077 10.8181 22.0079 11.1052 21.8167 11.3284L14.8167 18.3284C14.5994 18.5439 14.3061 18.6654 14.0001 18.6667Z" fill="rgb(255,255,255)" fill-rule="nonzero" />
	</g>
</svg>
