<svg viewBox="0 0 40 40" xmlns="http://www.w3.org/2000/svg" xmlns:xlink="http://www.w3.org/1999/xlink" width="40.000000" height="40.000000" fill="none">
	<rect id="fi_7406544" width="40.000000" height="40.000000" x="0.000000" y="0.000000" fill="rgb(255,255,255)" fill-opacity="0" />
	<g id="Group">
		<path id="Vector" d="M38.3613 16.8947C38.2413 7.55086 30.5089 0 21.0949 0C21.0499 0 21.0043 0.00015625 20.9592 0.00046875C20.8288 0.00148438 20.6988 0.00351563 20.569 0.0065625C18.2106 0.0614063 15.9474 0.602266 13.8424 1.61406C11.8205 2.58602 10.0454 3.94125 8.56649 5.64211C7.0936 7.33594 6.00251 9.27133 5.32329 11.3946C4.61751 13.6012 4.39665 15.8943 4.66673 18.2105C4.67962 18.3206 4.69001 18.412 4.69829 18.4878L1.96181 23.3959C1.55181 24.1312 1.52829 25.0213 1.89884 25.7769C2.26876 26.5313 2.9847 27.0584 3.81626 27.1897L4.67993 27.3353L5.18517 32.3551C5.19243 32.427 5.20462 32.4983 5.22173 32.5685C5.53181 33.8409 6.31626 34.9259 7.43063 35.6236C8.54196 36.3194 9.86134 36.5547 11.1464 36.2861C12.1409 36.0782 13.8116 35.8694 15.0817 35.7411L15.0817 36.0891C15.0817 38.2456 16.8361 39.9999 18.9925 39.9999L22.4407 39.9999C24.5971 39.9999 26.3515 38.2456 26.3515 36.0891L26.3515 31.8275C26.3515 30.9645 25.652 30.265 24.789 30.265C23.926 30.265 23.2265 30.9645 23.2265 31.8275L23.2265 36.0891C23.2265 36.5224 22.874 36.8749 22.4407 36.8749L18.9925 36.8749C18.5592 36.8749 18.2067 36.5224 18.2067 36.0891L18.2067 34.0531C18.2067 33.6338 18.0382 33.2321 17.739 32.9383C17.4399 32.6445 17.0366 32.4831 16.6159 32.4909C15.7074 32.5073 12.2335 32.8663 10.5071 33.2271C9.51993 33.4335 8.56071 32.862 8.28204 31.918L7.67001 25.8362C7.59954 25.1357 7.06938 24.5689 6.37517 24.4519L5.07337 24.2324L7.65962 19.5938C7.78938 19.3611 7.85743 19.0991 7.85743 18.8328C7.85743 18.8169 7.8572 18.801 7.85688 18.7815C7.85657 18.6712 7.84876 18.5162 7.77071 17.848C7.34407 14.1898 8.49368 10.4883 10.9247 7.6925C12.9568 5.35555 15.7457 3.81242 18.7704 3.30773L18.7704 12.2379L17.3463 13.0163C16.5975 12.3985 15.6384 12.027 14.5942 12.027C12.2059 12.027 10.2628 13.9708 10.2628 16.3599C10.2628 18.7491 12.2059 20.6928 14.5942 20.6928C16.9826 20.6928 18.9257 18.7491 18.9257 16.3599C18.9257 16.149 18.9106 15.9416 18.8813 15.7387L21.0822 14.5356C21.5834 14.2616 21.8952 13.7359 21.8952 13.1646L21.8952 3.14727C23.35 3.22844 24.7482 3.52922 26.056 4.0168L26.056 12.3186C24.4375 12.947 23.2871 14.5216 23.2871 16.3599C23.2871 18.7491 25.2302 20.6928 27.6185 20.6928C30.0069 20.6928 31.95 18.7491 31.95 16.3599C31.95 14.5216 30.7995 12.947 29.181 12.3186L29.181 5.64977C32.7885 8.14859 35.1765 12.2683 35.2365 16.9348C35.2858 20.7697 33.7563 24.2714 30.9297 26.7951C30.286 27.3698 30.2301 28.3576 30.8048 29.0013C31.3794 29.6449 32.3672 29.7008 33.0109 29.1262C36.5223 25.9912 38.4224 21.6473 38.3613 16.8947ZM27.6186 17.5679C26.9534 17.5679 26.4122 17.026 26.4122 16.36C26.4122 15.694 26.9534 15.1521 27.6186 15.1521C28.2839 15.1521 28.8251 15.694 28.8251 16.36C28.8251 17.026 28.2839 17.5679 27.6186 17.5679ZM14.5942 17.5679C13.929 17.5679 13.3878 17.026 13.3878 16.36C13.3878 15.694 13.9291 15.1521 14.5942 15.1521C15.2595 15.1521 15.8007 15.694 15.8007 16.36C15.8007 17.026 15.2595 17.5679 14.5942 17.5679Z" fill="rgb(66.3746,100.956,255)" fill-rule="nonzero" />
	</g>
</svg>
