<svg viewBox="0 0 40 40" xmlns="http://www.w3.org/2000/svg" xmlns:xlink="http://www.w3.org/1999/xlink" width="40.000000" height="40.000000" fill="none">
	<rect id="fi_12604939" width="40.000000" height="40.000000" x="0.000000" y="0.000000" fill="rgb(255,255,255)" fill-opacity="0" />
	<g id="Group">
		<path id="Vector" d="M21.7219 22.2761C21.0635 22.333 20.1774 22.1373 19.8324 21.7094C19.2909 21.0376 18.3074 20.9322 17.6356 21.4735C16.9638 22.015 16.8583 22.9985 17.3998 23.6703C18.0237 24.4444 18.8874 24.9144 19.7673 25.1674C19.9578 25.8152 20.5568 26.2882 21.2663 26.2882C21.9372 26.2882 22.5094 25.8653 22.7307 25.2715C24.3676 24.8858 25.5044 23.7255 25.7016 22.1721C25.9399 20.2945 24.7363 18.4991 22.7742 17.806C21.5244 17.3647 20.8887 17.1046 20.7103 17.0203C20.4216 16.8843 20.4303 16.7662 20.4361 16.688C20.4503 16.4967 20.5915 16.3089 20.7037 16.2753C21.6777 15.982 22.1782 16.3011 22.2505 16.3965C22.7463 17.1021 23.7203 17.2723 24.4265 16.7768C25.1326 16.2809 25.3031 15.3065 24.8073 14.6004C24.3855 13.9999 23.6829 13.4806 22.7805 13.2164C22.6087 12.54 21.9959 12.0398 21.2662 12.0398C20.5048 12.0398 19.8705 12.5846 19.732 13.3056C18.3937 13.7415 17.4282 14.9983 17.3201 16.4571C17.2131 17.8995 18.0019 19.1984 19.3786 19.847C19.7747 20.0336 20.6331 20.3636 21.7337 20.7523C22.4348 20.9999 22.637 21.5018 22.6018 21.7787C22.5532 22.1626 21.9703 22.2544 21.7219 22.2761Z" fill="rgb(66.3746,100.956,255)" fill-rule="nonzero" />
		<path id="Vector" d="M39.0072 23.5024C37.4657 19.0203 34.2672 14.3829 30.001 10.4445C28.3275 8.8995 26.5679 7.53138 24.7666 6.36794C27.0429 5.48117 29.2323 5.04263 31.1673 5.13106C33.0641 5.2173 34.5238 5.81238 35.5057 6.89982C36.068 7.5224 36.4618 8.3034 36.6764 9.2211C36.873 10.0613 37.7135 10.5832 38.5534 10.3867C39.3936 10.1902 39.9154 9.34983 39.7189 8.5097C39.3826 7.07136 38.7452 5.82511 37.8247 4.80571C36.2848 3.10038 34.0317 2.13354 31.3091 2.00973C28.598 1.88662 25.4542 2.59724 22.2193 4.06502C21.9445 4.18969 21.6696 4.31968 21.3948 4.45474C20.4563 3.99456 19.514 3.59235 18.5738 3.25192C14.9407 1.93646 11.6353 1.64728 8.94755 2.40039C7.99767 1.45566 6.69369 0.871826 5.25692 0.871826C2.35822 0.87167 0 3.24825 0 6.16937C0 8.19302 1.13173 9.9553 2.7909 10.8471C2.757 13.5227 3.58432 16.5704 5.20497 19.7163C5.24513 19.7943 5.28575 19.8723 5.32683 19.9502C4.70316 21.1347 4.18323 22.3239 3.77797 23.5024C2.12583 28.3061 2.54578 32.4244 4.96032 35.0982C6.64401 36.9627 9.11269 37.912 12.0851 37.9119C13.677 37.9119 15.4134 37.6396 17.2509 37.0899C18.2139 38.33 19.7125 39.1284 21.3926 39.1284C23.0727 39.1284 24.5712 38.33 25.5343 37.0899C27.3717 37.6396 29.108 37.9119 30.6999 37.9119C33.6724 37.9119 36.1414 36.9627 37.8249 35.0983C40.2393 32.4244 40.6592 28.3062 39.0072 23.5024ZM27.8815 12.7403C30.3325 15.0031 32.3568 17.4914 33.861 19.9575C32.3199 22.4851 30.266 24.9625 27.8815 27.1638C26.8736 28.0942 25.8225 28.962 24.7453 29.7534C23.8346 28.9916 22.6657 28.5331 21.3925 28.5331C20.1193 28.5331 18.9504 28.9916 18.0398 29.7534C16.9625 28.9619 15.9114 28.0942 14.9035 27.1638C12.5031 24.9478 10.4622 22.4852 8.92326 19.9587C10.4276 17.4922 12.4521 15.0035 14.9035 12.7404C16.9747 10.8285 19.1844 9.2186 21.3894 7.97844C23.6192 9.22555 25.8161 10.8336 27.8815 12.7403ZM5.25684 3.99628C6.43263 3.99628 7.38915 4.97108 7.38915 6.16937C7.38915 7.36765 6.43263 8.34245 5.25684 8.34245C4.08113 8.34253 3.12461 7.36765 3.12461 6.16937C3.12461 4.97108 4.08113 3.99628 5.25684 3.99628ZM5.92473 11.4246C8.50925 11.0929 10.5138 8.86262 10.5138 6.16937C10.5138 5.86003 10.4873 5.55679 10.4366 5.26182C12.3837 4.90687 14.8411 5.22339 17.5099 6.18975C17.6769 6.25022 17.8441 6.31294 18.0113 6.37786C16.2031 7.54646 14.4393 8.91637 12.784 10.4445C10.6537 12.4111 8.7896 14.5521 7.26511 16.761C6.45576 14.8614 5.99581 13.0312 5.92473 11.4246ZM11.1918 34.7442C9.49998 34.5911 8.18359 34.0058 7.27925 33.0042C5.3687 30.8885 5.51454 27.2001 7.26511 23.1397C8.79734 25.3609 10.6646 27.503 12.784 29.4597C13.9228 30.5109 15.1139 31.4895 16.3364 32.3787C16.2056 32.8403 16.1356 33.3275 16.1356 33.8308C16.1356 33.9403 16.139 34.0492 16.1455 34.157C14.3403 34.6732 12.6468 34.8755 11.1918 34.7442ZM21.3924 36.0038C20.2167 36.0038 19.2602 35.029 19.2602 33.8308C19.2602 32.6325 20.2168 31.6577 21.3924 31.6577C22.5682 31.6577 23.5247 32.6325 23.5247 33.8308C23.5247 35.029 22.5682 36.0038 21.3924 36.0038ZM35.5056 33.0042C34.6018 34.0052 33.2865 34.5905 31.5961 34.7439C30.1403 34.876 28.4457 34.6738 26.6394 34.1571C26.646 34.0492 26.6492 33.9404 26.6492 33.8308C26.6492 33.3275 26.5793 32.8403 26.4485 32.3787C27.671 31.4895 28.8622 30.5109 30.0009 29.4597C32.108 27.5144 33.9829 25.3631 35.5189 23.1378C37.2703 27.1989 37.4165 30.8881 35.5056 33.0042Z" fill="rgb(66.3746,100.956,255)" fill-rule="nonzero" />
	</g>
</svg>
