<svg viewBox="0 0 40 40" xmlns="http://www.w3.org/2000/svg" xmlns:xlink="http://www.w3.org/1999/xlink" width="40.000000" height="40.000000" fill="none">
	<rect id="fi_1000964" width="40.000000" height="40.000000" x="0.000000" y="0.000000" fill="rgb(255,255,255)" fill-opacity="0" />
	<g id="Group">
		<g id="Group">
			<g id="Group">
				<path id="Vector" d="M36.5656 7.16307L20.55 0.131819C20.1479 -0.0447435 19.6901 -0.0438841 19.2886 0.134085L3.42922 7.16533C2.8643 7.4158 2.5 7.97573 2.5 8.59377L2.5 20.9375C2.5 25.6025 4.34352 30.3713 7.55789 34.021C9.17469 35.8567 11.0386 37.3094 13.0979 38.3386C15.3037 39.441 17.6259 40 20 40C23.3244 40 26.5599 38.924 29.357 36.8884C30.0547 36.3806 30.2087 35.4033 29.7009 34.7056C29.193 34.0078 28.2158 33.8539 27.518 34.3617C25.2588 36.0059 22.6591 36.875 20 36.875C12.4766 36.875 5.625 29.2786 5.625 20.9375L5.625 9.61018L19.925 3.27033L34.375 9.61424L34.375 20.9375C34.375 23.8148 33.5484 26.7266 31.9846 29.358C31.5438 30.0999 31.7877 31.0586 32.5296 31.4995C33.2716 31.9403 34.2302 31.6964 34.6711 30.9545C36.5218 27.8402 37.5 24.3764 37.5 20.9375L37.5 8.59377C37.5 7.97377 37.1334 7.41237 36.5656 7.16307Z" fill="rgb(66.3746,100.956,255)" fill-rule="nonzero" />
				<path id="Vector" d="M27.452 12.3049L17.7641 24.4103L12.3332 19.1864C11.7113 18.5882 10.7221 18.6074 10.1239 19.2293C9.52571 19.8513 9.54485 20.8404 10.1668 21.4386L15.6734 26.7353C15.6756 26.7374 15.6779 26.7395 15.6801 26.7417C16.2503 27.2838 16.9884 27.5782 17.7702 27.5782C17.8122 27.5782 17.8541 27.5774 17.8962 27.5756C18.7244 27.5424 19.485 27.1838 20.038 26.5663C20.0572 26.5449 20.0758 26.5228 20.0938 26.5003L29.8919 14.2575C30.4311 13.5838 30.322 12.6005 29.6483 12.0613C28.9745 11.522 27.9913 11.6311 27.452 12.3049Z" fill="rgb(66.3746,100.956,255)" fill-rule="nonzero" />
			</g>
		</g>
	</g>
</svg>
