<svg viewBox="0 0 40 40" xmlns="http://www.w3.org/2000/svg" xmlns:xlink="http://www.w3.org/1999/xlink" width="40.000000" height="40.000000" fill="none">
	<rect id="fi_1389023" width="40.000000" height="40.000000" x="0.000000" y="0.000000" fill="rgb(255,255,255)" fill-opacity="0" />
	<path id="Vector" d="M36.875 26.3281L36.875 24.6875L24.6875 24.6875L24.6875 31.4062L38.4375 31.4062C39.3005 31.4062 40 32.1057 40 32.9688C40 33.8318 39.3005 34.5312 38.4375 34.5312L32.3438 34.5312L32.3438 36.875L34.6875 36.875C35.5505 36.875 36.25 37.5745 36.25 38.4375C36.25 39.3005 35.5505 40 34.6875 40L26.875 40C26.012 40 25.3125 39.3005 25.3125 38.4375C25.3125 37.5745 26.012 36.875 26.875 36.875L29.2188 36.875L29.2188 34.5312L23.125 34.5312C22.262 34.5312 21.5625 33.8318 21.5625 32.9688L21.5625 23.125C21.5625 22.262 22.262 21.5625 23.125 21.5625L38.4375 21.5625C39.3005 21.5625 40 22.262 40 23.125L40 26.3281C40 27.1912 39.3005 27.8906 38.4375 27.8906C37.5745 27.8906 36.875 27.1912 36.875 26.3281ZM14.6875 16.875C14.6875 17.738 13.988 18.4375 13.125 18.4375L5.3125 18.4375C4.44946 18.4375 3.75 17.738 3.75 16.875C3.75 16.012 4.44946 15.3125 5.3125 15.3125L7.65625 15.3125L7.65625 12.9688L1.5625 12.9688C0.699463 12.9688 0 12.2693 0 11.4062L0 1.5625C0 0.699463 0.699463 0 1.5625 0L16.875 0C17.738 0 18.4375 0.699463 18.4375 1.5625L18.4375 11.4062C18.4375 12.2693 17.738 12.9688 16.875 12.9688L10.7812 12.9688L10.7812 15.3125L13.125 15.3125C13.988 15.3125 14.6875 16.012 14.6875 16.875ZM3.125 9.84375L15.3125 9.84375L15.3125 3.125L3.125 3.125L3.125 9.84375ZM35.3125 12.4219C36.1755 12.4219 36.875 11.7224 36.875 10.8594C36.875 9.99634 36.1755 9.29688 35.3125 9.29688C34.4495 9.29688 33.75 9.99634 33.75 10.8594C33.75 11.7224 34.4495 12.4219 35.3125 12.4219ZM35.3125 6.25C36.1755 6.25 36.875 5.55054 36.875 4.6875C36.875 3.82446 36.1755 3.125 35.3125 3.125C34.4495 3.125 33.75 3.82446 33.75 4.6875C33.75 5.55054 34.4495 6.25 35.3125 6.25ZM29.0625 6.25C29.9255 6.25 30.625 5.55054 30.625 4.6875C30.625 3.82446 29.9255 3.125 29.0625 3.125C28.1995 3.125 27.5 3.82446 27.5 4.6875C27.5 5.55054 28.1995 6.25 29.0625 6.25ZM22.8125 6.25C23.6755 6.25 24.375 5.55054 24.375 4.6875C24.375 3.82446 23.6755 3.125 22.8125 3.125C21.9495 3.125 21.25 3.82446 21.25 4.6875C21.25 5.55054 21.9495 6.25 22.8125 6.25ZM4.6875 21.25C3.82446 21.25 3.125 21.9495 3.125 22.8125C3.125 23.6755 3.82446 24.375 4.6875 24.375C5.55054 24.375 6.25 23.6755 6.25 22.8125C6.25 21.9495 5.55054 21.25 4.6875 21.25ZM4.6875 27.5C3.82446 27.5 3.125 28.1995 3.125 29.0625C3.125 29.9255 3.82446 30.625 4.6875 30.625C5.55054 30.625 6.25 29.9255 6.25 29.0625C6.25 28.1995 5.55054 27.5 4.6875 27.5ZM4.6875 33.6719C3.82446 33.6719 3.125 34.3713 3.125 35.2344C3.125 36.0974 3.82446 36.7969 4.6875 36.7969C5.55054 36.7969 6.25 36.0974 6.25 35.2344C6.25 34.3713 5.55054 33.6719 4.6875 33.6719ZM10.9375 33.6719C10.0745 33.6719 9.375 34.3713 9.375 35.2344C9.375 36.0974 10.0745 36.7969 10.9375 36.7969C11.8005 36.7969 12.5 36.0974 12.5 35.2344C12.5 34.3713 11.8005 33.6719 10.9375 33.6719ZM17.1875 33.6719C16.3245 33.6719 15.625 34.3713 15.625 35.2344C15.625 36.0974 16.3245 36.7969 17.1875 36.7969C18.0505 36.7969 18.75 36.0974 18.75 35.2344C18.75 34.3713 18.0505 33.6719 17.1875 33.6719ZM35.3125 18.6719C36.1755 18.6719 36.875 17.9724 36.875 17.1094C36.875 16.2463 36.1755 15.5469 35.3125 15.5469C34.4495 15.5469 33.75 16.2463 33.75 17.1094C33.75 17.9724 34.4495 18.6719 35.3125 18.6719Z" fill="rgb(66.3746,100.956,255)" fill-rule="nonzero" />
</svg>
