<svg viewBox="0 0 319.305 74.45" xmlns="http://www.w3.org/2000/svg" xmlns:xlink="http://www.w3.org/1999/xlink" width="319.305298" height="74.449951" fill="none" customFrame="#000000">
	<rect id="logo" width="319.305298" height="74.449898" x="0.000000" y="0.000000" />
	<g id="spectrum ai">
		<path id="Vector" d="M313.467 47.0005L313.467 24.8665L318.633 24.8665L318.633 47.0005L313.467 47.0005ZM315.987 20.1625C314.951 20.1625 314.139 19.9105 313.551 19.4065C312.991 18.8745 312.711 18.1325 312.711 17.1805C312.711 16.2845 313.005 15.5565 313.593 14.9965C314.181 14.4365 314.979 14.1565 315.987 14.1565C317.051 14.1565 317.863 14.4225 318.423 14.9545C319.011 15.4585 319.305 16.2005 319.305 17.1805C319.305 18.0485 319.011 18.7625 318.423 19.3225C317.835 19.8825 317.023 20.1625 315.987 20.1625Z" fill="rgb(66.3746,100.956,255)" fill-rule="nonzero" />
		<path id="Vector" d="M293.87 47.4203C292.05 47.4203 290.398 46.9163 288.914 45.9083C287.43 44.9003 286.24 43.5283 285.344 41.7923C284.448 40.0563 284 38.0823 284 35.8703C284 33.6583 284.448 31.6843 285.344 29.9483C286.24 28.2123 287.458 26.8543 288.998 25.8743C290.538 24.8943 292.274 24.4043 294.206 24.4043C295.326 24.4043 296.348 24.5723 297.272 24.9083C298.196 25.2163 299.008 25.6643 299.708 26.2523C300.408 26.8403 300.982 27.5123 301.43 28.2683C301.906 29.0243 302.228 29.8363 302.396 30.7043L301.262 30.4103L301.262 24.8663L306.47 24.8663L306.47 47.0003L301.22 47.0003L301.22 41.7083L302.438 41.4983C302.242 42.2543 301.878 42.9963 301.346 43.7243C300.842 44.4243 300.198 45.0543 299.414 45.6143C298.658 46.1463 297.804 46.5803 296.852 46.9163C295.928 47.2523 294.934 47.4203 293.87 47.4203ZM295.298 42.8423C296.502 42.8423 297.566 42.5483 298.49 41.9603C299.414 41.3723 300.128 40.5603 300.632 39.5243C301.164 38.4603 301.43 37.2423 301.43 35.8703C301.43 34.5263 301.164 33.3363 300.632 32.3003C300.128 31.2643 299.414 30.4523 298.49 29.8643C297.566 29.2763 296.502 28.9823 295.298 28.9823C294.094 28.9823 293.03 29.2763 292.106 29.8643C291.21 30.4523 290.51 31.2643 290.006 32.3003C289.502 33.3363 289.25 34.5263 289.25 35.8703C289.25 37.2423 289.502 38.4603 290.006 39.5243C290.51 40.5603 291.21 41.3723 292.106 41.9603C293.03 42.5483 294.094 42.8423 295.298 42.8423Z" fill="rgb(66.3746,100.956,255)" fill-rule="nonzero" />
		<path id="Vector" d="M245.386 47.0005L245.386 24.8665L250.468 24.8665L250.552 29.3185L249.712 29.6545C249.964 28.9265 250.342 28.2545 250.846 27.6385C251.35 26.9945 251.952 26.4485 252.652 26.0005C253.352 25.5245 254.094 25.1605 254.878 24.9085C255.662 24.6285 256.46 24.4885 257.272 24.4885C258.476 24.4885 259.54 24.6845 260.464 25.0765C261.416 25.4405 262.2 26.0285 262.816 26.8405C263.46 27.6525 263.936 28.6885 264.244 29.9485L263.446 29.7805L263.782 29.1085C264.09 28.4365 264.524 27.8345 265.084 27.3025C265.644 26.7425 266.274 26.2525 266.974 25.8325C267.674 25.3845 268.402 25.0485 269.158 24.8245C269.942 24.6005 270.712 24.4885 271.468 24.4885C273.148 24.4885 274.548 24.8245 275.668 25.4965C276.788 26.1685 277.628 27.1905 278.188 28.5625C278.748 29.9345 279.028 31.6285 279.028 33.6445L279.028 47.0005L273.82 47.0005L273.82 33.9805C273.82 32.8605 273.666 31.9365 273.358 31.2085C273.078 30.4805 272.63 29.9485 272.014 29.6125C271.426 29.2485 270.684 29.0665 269.788 29.0665C269.088 29.0665 268.416 29.1925 267.772 29.4445C267.156 29.6685 266.624 30.0045 266.176 30.4525C265.728 30.8725 265.378 31.3625 265.126 31.9225C264.874 32.4825 264.748 33.0985 264.748 33.7705L264.748 47.0005L259.54 47.0005L259.54 33.9385C259.54 32.8745 259.386 31.9925 259.078 31.2925C258.77 30.5645 258.322 30.0185 257.734 29.6545C257.146 29.2625 256.432 29.0665 255.592 29.0665C254.892 29.0665 254.234 29.1925 253.618 29.4445C253.002 29.6685 252.47 29.9905 252.022 30.4105C251.574 30.8305 251.224 31.3205 250.972 31.8805C250.72 32.4405 250.594 33.0565 250.594 33.7285L250.594 47.0005L245.386 47.0005Z" fill="rgb(23.7594,25.4745,75.2129)" fill-rule="nonzero" />
		<path id="Vector" d="M226.773 47.4205C225.177 47.4205 223.791 47.0705 222.615 46.3705C221.439 45.6425 220.543 44.6205 219.927 43.3045C219.311 41.9605 219.003 40.3645 219.003 38.5165L219.003 24.8665L224.169 24.8665L224.169 37.4245C224.169 38.6005 224.351 39.6085 224.715 40.4485C225.079 41.2605 225.611 41.8905 226.311 42.3385C227.011 42.7865 227.851 43.0105 228.831 43.0105C229.559 43.0105 230.217 42.8985 230.805 42.6745C231.421 42.4225 231.953 42.0865 232.401 41.6665C232.849 41.2185 233.199 40.7005 233.451 40.1125C233.703 39.4965 233.829 38.8385 233.829 38.1385L233.829 24.8665L238.995 24.8665L238.995 47.0005L233.955 47.0005L233.871 42.3805L234.795 41.8765C234.459 42.9405 233.885 43.8925 233.073 44.7325C232.289 45.5445 231.351 46.2025 230.259 46.7065C229.167 47.1825 228.005 47.4205 226.773 47.4205Z" fill="rgb(23.7594,25.4745,75.2129)" fill-rule="nonzero" />
		<path id="Vector" d="M200.989 47.0003L200.989 24.8663L206.071 24.8663L206.155 31.9223L205.441 30.3263C205.749 29.2063 206.281 28.1983 207.037 27.3023C207.793 26.4063 208.661 25.7063 209.641 25.2023C210.649 24.6703 211.699 24.4043 212.791 24.4043C213.267 24.4043 213.715 24.4463 214.135 24.5303C214.583 24.6143 214.947 24.7123 215.227 24.8243L213.841 30.4943C213.533 30.3263 213.155 30.1863 212.707 30.0743C212.259 29.9623 211.811 29.9063 211.363 29.9063C210.663 29.9063 209.991 30.0463 209.347 30.3263C208.731 30.5783 208.185 30.9423 207.709 31.4183C207.233 31.8943 206.855 32.4543 206.575 33.0983C206.323 33.7143 206.197 34.4143 206.197 35.1983L206.197 47.0003L200.989 47.0003Z" fill="rgb(23.7594,25.4745,75.2129)" fill-rule="nonzero" />
		<path id="Vector" d="M186.639 47.0005L186.639 19.2385L191.805 19.2385L191.805 47.0005L186.639 47.0005ZM182.271 29.6545L182.271 24.8665L196.635 24.8665L196.635 29.6545L182.271 29.6545Z" fill="rgb(23.7594,25.4745,75.2129)" fill-rule="nonzero" />
		<path id="Vector" d="M170.676 47.4203C168.604 47.4203 166.742 46.9163 165.09 45.9083C163.438 44.9003 162.136 43.5283 161.184 41.7923C160.232 40.0563 159.756 38.0963 159.756 35.9123C159.756 33.7283 160.232 31.7683 161.184 30.0323C162.136 28.2963 163.438 26.9243 165.09 25.9163C166.742 24.9083 168.604 24.4043 170.676 24.4043C172.664 24.4043 174.47 24.7823 176.094 25.5383C177.718 26.2943 178.978 27.3443 179.874 28.6883L177.018 32.1323C176.598 31.5443 176.066 31.0123 175.422 30.5363C174.778 30.0603 174.092 29.6823 173.364 29.4023C172.636 29.1223 171.908 28.9823 171.18 28.9823C169.948 28.9823 168.842 29.2903 167.862 29.9063C166.91 30.4943 166.154 31.3203 165.594 32.3843C165.034 33.4203 164.754 34.5963 164.754 35.9123C164.754 37.2283 165.034 38.4043 165.594 39.4403C166.182 40.4763 166.966 41.3023 167.946 41.9183C168.926 42.5343 170.018 42.8423 171.222 42.8423C171.95 42.8423 172.65 42.7303 173.322 42.5063C174.022 42.2543 174.68 41.9043 175.296 41.4563C175.912 41.0083 176.486 40.4483 177.018 39.7763L179.874 43.2623C178.922 44.4943 177.606 45.5023 175.926 46.2863C174.274 47.0423 172.524 47.4203 170.676 47.4203Z" fill="rgb(23.7594,25.4745,75.2129)" fill-rule="nonzero" />
		<path id="Vector" d="M146.529 47.4203C144.205 47.4203 142.147 46.9303 140.355 45.9503C138.591 44.9703 137.205 43.6403 136.197 41.9603C135.217 40.2523 134.727 38.3063 134.727 36.1223C134.727 34.3863 135.007 32.8043 135.567 31.3763C136.127 29.9483 136.897 28.7163 137.877 27.6803C138.885 26.6163 140.075 25.8043 141.447 25.2443C142.847 24.6563 144.373 24.3623 146.025 24.3623C147.481 24.3623 148.839 24.6423 150.099 25.2023C151.359 25.7623 152.451 26.5323 153.375 27.5123C154.299 28.4643 154.999 29.6123 155.475 30.9563C155.979 32.2723 156.217 33.7143 156.189 35.2823L156.147 37.0883L138.213 37.0883L137.247 33.5603L151.821 33.5603L151.149 34.2743L151.149 33.3503C151.065 32.4823 150.785 31.7263 150.309 31.0823C149.833 30.4103 149.217 29.8923 148.461 29.5283C147.733 29.1363 146.921 28.9403 146.025 28.9403C144.653 28.9403 143.491 29.2063 142.539 29.7383C141.615 30.2703 140.915 31.0403 140.439 32.0483C139.963 33.0283 139.725 34.2603 139.725 35.7443C139.725 37.1723 140.019 38.4183 140.607 39.4823C141.223 40.5463 142.077 41.3723 143.169 41.9603C144.289 42.5203 145.591 42.8003 147.075 42.8003C148.111 42.8003 149.063 42.6323 149.931 42.2963C150.799 41.9603 151.737 41.3583 152.745 40.4903L155.307 44.0603C154.551 44.7603 153.683 45.3623 152.703 45.8663C151.751 46.3423 150.743 46.7203 149.679 47.0003C148.615 47.2803 147.565 47.4203 146.529 47.4203Z" fill="rgb(23.7594,25.4745,75.2129)" fill-rule="nonzero" />
		<path id="Vector" d="M108.829 56.2405L108.829 24.8665L113.911 24.8665L113.995 29.9065L113.113 29.5285C113.281 28.6605 113.757 27.8485 114.541 27.0925C115.325 26.3085 116.277 25.6785 117.397 25.2025C118.545 24.7265 119.735 24.4885 120.967 24.4885C122.927 24.4885 124.663 24.9785 126.175 25.9585C127.715 26.9385 128.919 28.2825 129.787 29.9905C130.683 31.6985 131.131 33.6725 131.131 35.9125C131.131 38.1245 130.683 40.0985 129.787 41.8345C128.919 43.5425 127.715 44.9005 126.175 45.9085C124.663 46.8885 122.955 47.3785 121.051 47.3785C119.763 47.3785 118.517 47.1265 117.313 46.6225C116.137 46.1185 115.129 45.4605 114.289 44.6485C113.477 43.8365 112.973 42.9825 112.777 42.0865L114.037 41.4985L114.037 56.2405L108.829 56.2405ZM120.001 42.8005C121.177 42.8005 122.227 42.5065 123.151 41.9185C124.075 41.3305 124.789 40.5185 125.293 39.4825C125.825 38.4465 126.091 37.2565 126.091 35.9125C126.091 34.5685 125.839 33.3925 125.335 32.3845C124.831 31.3485 124.117 30.5365 123.193 29.9485C122.269 29.3605 121.205 29.0665 120.001 29.0665C118.769 29.0665 117.691 29.3605 116.767 29.9485C115.871 30.5085 115.157 31.3065 114.625 32.3425C114.093 33.3785 113.827 34.5685 113.827 35.9125C113.827 37.2565 114.093 38.4465 114.625 39.4825C115.157 40.5185 115.871 41.3305 116.767 41.9185C117.691 42.5065 118.769 42.8005 120.001 42.8005Z" fill="rgb(23.7594,25.4745,75.2129)" fill-rule="nonzero" />
		<path id="Vector" d="M95.416 47.4203C93.456 47.4203 91.692 47.0983 90.124 46.4543C88.584 45.7823 87.324 44.8303 86.344 43.5983L89.704 40.7003C90.544 41.6523 91.482 42.3383 92.518 42.7583C93.554 43.1783 94.646 43.3883 95.794 43.3883C96.27 43.3883 96.69 43.3323 97.054 43.2203C97.446 43.1083 97.782 42.9403 98.062 42.7163C98.342 42.4923 98.552 42.2403 98.692 41.9603C98.86 41.6523 98.944 41.3163 98.944 40.9523C98.944 40.2803 98.692 39.7483 98.188 39.3563C97.908 39.1603 97.46 38.9503 96.844 38.7263C96.256 38.5023 95.486 38.2783 94.534 38.0543C93.022 37.6623 91.762 37.2143 90.754 36.7103C89.746 36.1783 88.962 35.5903 88.402 34.9463C87.926 34.4143 87.562 33.8123 87.31 33.1403C87.086 32.4683 86.974 31.7403 86.974 30.9563C86.974 29.9763 87.184 29.0943 87.604 28.3103C88.052 27.4983 88.654 26.7983 89.41 26.2103C90.166 25.6223 91.048 25.1743 92.056 24.8663C93.064 24.5583 94.114 24.4043 95.206 24.4043C96.326 24.4043 97.404 24.5443 98.44 24.8243C99.504 25.1043 100.484 25.5103 101.38 26.0423C102.304 26.5463 103.088 27.1623 103.732 27.8903L100.876 31.0403C100.344 30.5363 99.756 30.0883 99.112 29.6963C98.496 29.3043 97.866 28.9963 97.222 28.7723C96.578 28.5203 95.976 28.3943 95.416 28.3943C94.884 28.3943 94.408 28.4503 93.988 28.5623C93.568 28.6463 93.218 28.7863 92.938 28.9823C92.658 29.1783 92.434 29.4303 92.266 29.7383C92.126 30.0183 92.056 30.3543 92.056 30.7463C92.084 31.0823 92.168 31.4043 92.308 31.7123C92.476 31.9923 92.7 32.2303 92.98 32.4263C93.288 32.6223 93.75 32.8463 94.366 33.0983C94.982 33.3503 95.78 33.5883 96.76 33.8123C98.132 34.1763 99.28 34.5823 100.204 35.0303C101.128 35.4783 101.856 35.9963 102.388 36.5843C102.92 37.0883 103.298 37.6763 103.522 38.3483C103.746 39.0203 103.858 39.7623 103.858 40.5743C103.858 41.8903 103.48 43.0663 102.724 44.1023C101.996 45.1383 100.988 45.9503 99.7 46.5383C98.44 47.1263 97.012 47.4203 95.416 47.4203Z" fill="rgb(23.7594,25.4745,75.2129)" fill-rule="nonzero" />
	</g>
	<path id="icon" d="M37.5 71.9497C38.1902 71.9497 38.7497 72.5096 38.75 73.1997C38.75 73.89 38.1903 74.4497 37.5 74.4497C36.8096 74.4497 36.25 73.8901 36.25 73.1997C36.2503 72.5096 36.8098 71.9497 37.5 71.9497ZM30.4883 71.6255C30.7599 71.4355 31.0964 71.3617 31.4229 71.4194C32.1023 71.5399 32.5557 72.1881 32.4355 72.8677C32.3153 73.5473 31.667 74.0004 30.9873 73.8804C30.3077 73.7603 29.854 73.1127 29.9736 72.4331C30.0312 72.1065 30.2166 71.8156 30.4883 71.6255ZM23.9287 70.5894C24.1636 69.9406 24.8794 69.605 25.5283 69.8394C25.8405 69.9522 26.0956 70.1843 26.2363 70.4849C26.3769 70.7854 26.3916 71.13 26.2783 71.4419C26.0425 72.0901 25.3262 72.4251 24.6777 72.1899C24.0291 71.9547 23.694 71.2381 23.9287 70.5894ZM49.4736 69.8384C50.1223 69.6035 50.8387 69.939 51.0742 70.5874C51.3095 71.2361 50.9747 71.9533 50.3262 72.189C50.0142 72.3023 49.6697 72.2867 49.3691 72.146C49.0687 72.0053 48.8364 71.751 48.7236 71.439C48.4891 70.79 48.8248 70.0733 49.4736 69.8384ZM54.4336 68.0288C54.6124 67.3622 55.2972 66.9665 55.9639 67.145C56.6307 67.3238 57.0264 68.0095 56.8477 68.6763C56.6688 69.343 55.9832 69.7388 55.3164 69.5601C54.6498 69.3811 54.2548 68.6955 54.4336 68.0288ZM19.0645 67.1382C19.7312 66.9594 20.4169 67.3552 20.5957 68.022C20.7745 68.6888 20.3787 69.3744 19.7119 69.5532C19.0451 69.7319 18.3594 69.3362 18.1807 68.6694C18.002 68.0027 18.3977 67.317 19.0645 67.1382ZM37.5 66.9497C38.1902 66.9497 38.7497 67.5096 38.75 68.1997C38.75 68.89 38.1903 69.4497 37.5 69.4497C36.8096 69.4497 36.25 68.8901 36.25 68.1997C36.2503 67.5096 36.8098 66.9497 37.5 66.9497ZM30.8428 67.5083C30.9629 66.8286 31.6113 66.3748 32.291 66.4946C32.9708 66.6146 33.4246 67.2631 33.3047 67.9429C33.2471 68.2692 33.0625 68.5594 32.791 68.7495C32.5194 68.9396 32.1829 69.0142 31.8564 68.9565C31.1768 68.8363 30.7229 68.1879 30.8428 67.5083ZM43.1973 66.5054C43.6909 66.615 44.0696 67.0113 44.1572 67.5093C44.2766 68.1888 43.823 68.8366 43.1436 68.9565C42.6457 69.0444 42.1437 68.8234 41.8721 68.397C41.6005 67.9706 41.6123 67.4224 41.9023 67.0083C42.1924 66.5941 42.7036 66.3958 43.1973 66.5054ZM47.7617 65.1392C48.4102 64.9042 49.1265 65.2391 49.3623 65.8872C49.4757 66.1991 49.46 66.5436 49.3193 66.8442C49.1786 67.1448 48.9244 67.3769 48.6123 67.4897C47.9633 67.7243 47.2476 67.3886 47.0127 66.7397C46.7779 66.0909 47.1131 65.3744 47.7617 65.1392ZM13.2412 63.9155C13.6849 63.387 14.4732 63.3179 15.002 63.7612C15.5307 64.205 15.6 64.9942 15.1562 65.5229C14.9431 65.7768 14.6378 65.9355 14.3076 65.9644C13.9773 65.9932 13.6485 65.8895 13.3945 65.6763C12.8662 65.2324 12.7976 64.4441 13.2412 63.9155ZM51.9316 63.6968C52.1105 63.0301 52.7962 62.6342 53.4629 62.813C54.1296 62.9917 54.5253 63.6775 54.3467 64.3442C54.1679 65.011 53.4822 65.4068 52.8154 65.228C52.1486 65.0492 51.7529 64.3636 51.9316 63.6968ZM21.5645 62.8071C22.2312 62.6284 22.9169 63.0241 23.0957 63.6909C23.2742 64.3575 22.8784 65.0423 22.2119 65.2212C21.5452 65.3999 20.8596 65.005 20.6807 64.3384C20.5019 63.6716 20.8976 62.9859 21.5645 62.8071ZM57.6953 59.6431C58.1991 59.6871 58.6273 60.0308 58.7793 60.5132C58.9311 60.9954 58.7771 61.5214 58.3896 61.8462C57.8611 62.2892 57.0736 62.2209 56.6299 61.6929C56.3046 61.3058 56.2444 60.7606 56.4775 60.312C56.7108 59.8635 57.1917 59.5993 57.6953 59.6431ZM9.83984 59.0054C10.3435 59.0495 10.7709 59.3932 10.9229 59.8755C11.0747 60.3576 10.9214 60.8836 10.5342 61.2085C10.0056 61.6516 9.2172 61.5832 8.77344 61.0552C8.4482 60.668 8.38878 60.1229 8.62207 59.6743C8.85541 59.2257 9.33609 58.9614 9.83984 59.0054ZM65.1602 59.0054C65.6639 58.9614 66.1446 59.2257 66.3779 59.6743C66.6112 60.1229 66.5518 60.668 66.2266 61.0552C65.7828 61.5832 64.9944 61.6516 64.4658 61.2085C64.0786 60.8836 63.9253 60.3576 64.0771 59.8755C64.2291 59.3933 64.6565 59.0495 65.1602 59.0054ZM12.7588 56.0796C13.2877 55.6363 14.076 55.7052 14.5195 56.2339C14.963 56.7629 14.8942 57.5521 14.3652 57.9956C14.1112 58.2086 13.7824 58.3118 13.4521 58.2827C13.1219 58.2536 12.8165 58.0945 12.6035 57.8403C12.1602 57.3113 12.2299 56.523 12.7588 56.0796ZM5.48145 53.9927C5.91925 53.74 6.46613 53.7758 6.86719 54.0835C7.26828 54.3913 7.44432 54.9106 7.31348 55.3989C7.18256 55.8871 6.77066 56.2489 6.26953 56.3149C5.76827 56.3809 5.27622 56.1376 5.02344 55.6997C4.67864 55.1019 4.88376 54.3378 5.48145 53.9927ZM69.0566 53.8354C69.5579 53.9014 69.9707 54.2631 70.1016 54.7515C70.2324 55.2398 70.0554 55.7591 69.6543 56.0669C69.2532 56.3744 68.7063 56.4105 68.2686 56.1577C67.6708 55.8125 67.4664 55.0475 67.8115 54.4497C68.0643 54.0122 68.5557 53.7697 69.0566 53.8354ZM40.4238 20.0044C45.6274 19.9906 50.8345 20.0217 56.0381 20.0044C54.1531 21.9513 52.2337 23.8673 50.3281 25.7935C49.5549 26.6391 48.3638 26.8737 47.2656 26.8599C42.4726 26.8668 37.6797 26.8356 32.8867 26.8735C30.8203 26.9115 29.5916 28.7793 28.2334 30.0669C27.1968 31.1991 25.927 32.1446 25.1299 33.4839C31.0042 33.7842 36.9064 33.4709 42.7842 33.647C43.564 33.7954 44.2652 34.2125 44.8262 34.7681C46.2802 36.18 47.67 37.6618 49.1172 39.0806C49.8801 39.8467 50.9068 40.4092 52.0049 40.4058C54.6699 40.4368 57.3349 40.4027 60 40.4165C58.2621 42.2115 56.4898 43.9752 54.7383 45.7632C53.9549 46.6227 52.8941 47.2369 51.7139 47.2681C49.432 47.3268 47.15 47.2442 44.8682 47.2925C43.5374 47.2545 42.5687 48.3039 41.6484 49.1255C40.1568 50.5028 38.7569 51.9873 37.1865 53.2749C36.4647 53.8857 35.5174 54.0376 34.6006 53.9927C29.4003 53.9685 24.1964 54.0245 18.9961 53.9624C20.9086 52.0672 22.777 50.1271 24.6895 48.2319C25.312 47.6003 26.1565 47.2096 27.0527 47.2612C30.9289 47.2405 34.8089 47.2613 38.6885 47.2544C40.2211 47.2406 41.7848 47.3751 43.2764 46.9575C44.3848 46.5847 45.1447 45.6356 45.9658 44.8521C47.2693 43.4747 48.676 42.1905 49.9111 40.7476C49.203 40.3333 48.3713 40.4537 47.5879 40.4399C42.6819 40.4434 37.7722 40.4577 32.8662 40.437C31.833 40.4681 30.8366 39.9877 30.125 39.2524C28.76 37.8683 27.4118 36.467 26.0264 35.1001C25.2121 34.2993 24.1519 33.6435 22.9785 33.647C20.3202 33.6297 17.6583 33.6708 15 33.6294C16.6525 31.9586 18.3187 30.2979 19.9541 28.6099C20.717 27.8608 21.5488 27.0184 22.6641 26.8872C25.0451 26.7561 27.4402 26.9492 29.8213 26.7974C30.7927 26.7386 31.7607 26.4111 32.4824 25.7349C34.2102 24.1435 35.839 22.4407 37.6387 20.9321C38.4187 20.2833 39.4284 19.9975 40.4238 20.0044ZM64.2539 51.3599C64.9206 51.1811 65.6062 51.5761 65.7852 52.2427C65.9639 52.9095 65.5682 53.5951 64.9014 53.7739C64.2346 53.9527 63.5489 53.5569 63.3701 52.8901C63.1917 52.2235 63.5874 51.5387 64.2539 51.3599ZM3.01172 48.1724C3.66043 47.9378 4.37703 48.2729 4.6123 48.9214C4.8476 49.5701 4.51186 50.2873 3.86328 50.5229C3.55154 50.6361 3.20763 50.6205 2.90723 50.48C2.60664 50.3393 2.37356 50.0851 2.26074 49.7729C2.02621 49.124 2.36287 48.4073 3.01172 48.1724ZM65.6895 47.2153C65.9248 46.5666 66.6412 46.2314 67.29 46.4663C67.9387 46.7012 68.2743 47.4171 68.04 48.0659C67.9272 48.378 67.6951 48.6332 67.3945 48.7739C67.0939 48.9146 66.7494 48.9293 66.4375 48.8159C65.789 48.5802 65.4542 47.864 65.6895 47.2153ZM7.70996 46.4624C8.35874 46.2275 9.07517 46.5628 9.31055 47.2114C9.54584 47.8601 9.21108 48.5773 8.5625 48.813C8.25058 48.9263 7.90604 48.9107 7.60547 48.77C7.30504 48.6294 7.07278 48.3749 6.95996 48.063C6.72543 47.414 7.06115 46.6973 7.70996 46.4624ZM71.9678 43.0288C72.0873 42.349 72.7352 41.8948 73.415 42.0142C74.0949 42.1336 74.549 42.7815 74.4297 43.4614C74.3723 43.788 74.1875 44.0787 73.916 44.269C73.6446 44.4592 73.3088 44.5334 72.9824 44.4761C72.3026 44.3565 71.8483 43.7087 71.9678 43.0288ZM6.05273 41.3228C6.47913 41.0511 7.02724 41.0631 7.44141 41.353C7.85545 41.643 8.05465 42.1535 7.94531 42.647C7.83575 43.1406 7.4394 43.5203 6.94141 43.6079C6.26193 43.7274 5.61429 43.2736 5.49414 42.5942C5.40625 42.0965 5.62657 41.5945 6.05273 41.3228ZM67.5576 41.3521C67.8293 41.1618 68.1656 41.0874 68.4922 41.145C69.1718 41.2651 69.6257 41.9136 69.5059 42.5933C69.386 43.2728 68.7382 43.7264 68.0586 43.6069C67.379 43.4874 66.925 42.8402 67.0439 42.1606C67.1013 41.8338 67.2859 41.5424 67.5576 41.3521ZM1.25 35.6997C1.9402 35.6997 2.49975 36.2596 2.5 36.9497C2.5 37.6401 1.94036 38.1997 1.25 38.1997C0.559644 38.1997 0 37.6401 0 36.9497C0.00025145 36.2596 0.559799 35.6997 1.25 35.6997ZM6.25 35.6997C6.9402 35.6997 7.49975 36.2596 7.5 36.9497C7.5 37.6401 6.94036 38.1997 6.25 38.1997C5.55964 38.1997 5 37.6401 5 36.9497C5.00025 36.2596 5.5598 35.6997 6.25 35.6997ZM68.75 35.6997C69.4402 35.6997 69.9997 36.2596 70 36.9497C70 37.6401 69.4404 38.1997 68.75 38.1997C68.0596 38.1997 67.5 37.6401 67.5 36.9497C67.5003 36.2596 68.0598 35.6997 68.75 35.6997ZM73.75 35.6997C74.4402 35.6997 74.9997 36.2596 75 36.9497C75 37.6401 74.4404 38.1997 73.75 38.1997C73.0596 38.1997 72.5 37.6401 72.5 36.9497C72.5003 36.2596 73.0598 35.6997 73.75 35.6997ZM1.53027 29.4351C2.02383 29.3255 2.53511 29.5239 2.8252 29.938C3.11526 30.3522 3.12719 30.9012 2.85547 31.3276C2.58375 31.7539 2.08177 31.974 1.58398 31.8862C0.904461 31.7662 0.450775 31.1186 0.570312 30.439C0.657912 29.941 1.03664 29.5446 1.53027 29.4351ZM73.4697 29.4351C73.9634 29.5446 74.3421 29.941 74.4297 30.439C74.5492 31.1186 74.0955 31.7662 73.416 31.8862C72.9182 31.974 72.4162 31.7539 72.1445 31.3276C71.8728 30.9012 71.8847 30.3522 72.1748 29.938C72.4649 29.5239 72.9762 29.3255 73.4697 29.4351ZM66.4375 25.0874C66.7494 24.9741 67.0939 24.9897 67.3945 25.1304C67.695 25.271 67.9272 25.5254 68.04 25.8374C68.2746 26.4864 67.9389 27.2031 67.29 27.438C66.6413 27.6729 65.9248 27.3375 65.6895 26.689C65.4542 26.0403 65.7889 25.3231 66.4375 25.0874ZM7.60547 25.1265C7.90603 24.9858 8.25059 24.9702 8.5625 25.0835C9.21108 25.3192 9.54584 26.0363 9.31055 26.6851C9.0752 27.3337 8.35877 27.669 7.70996 27.4341C7.06117 27.1991 6.72544 26.4825 6.95996 25.8335C7.07279 25.5216 7.30505 25.2671 7.60547 25.1265ZM2.25879 24.1235C2.49459 23.4752 3.21175 23.1402 3.86035 23.3755C4.50872 23.6109 4.84399 24.3274 4.60938 24.9761C4.37446 25.6249 3.65778 25.9606 3.00879 25.7261C2.69671 25.6133 2.44243 25.3811 2.30176 25.0806C2.16107 24.78 2.14544 24.4355 2.25879 24.1235ZM71.1387 23.3765C71.7875 23.1415 72.504 23.4768 72.7393 24.1255C72.9745 24.7742 72.6397 25.4904 71.9912 25.7261C71.6793 25.8394 71.3348 25.8248 71.0342 25.6841C70.7336 25.5434 70.5015 25.2882 70.3887 24.9761C70.1544 24.3272 70.4901 23.6114 71.1387 23.3765ZM10.1172 20.1177C10.7839 19.939 11.4696 20.3339 11.6484 21.0005C11.8272 21.6672 11.4312 22.3528 10.7646 22.5317C10.0978 22.7105 9.41218 22.3148 9.2334 21.6479C9.0548 20.9812 9.45048 20.2964 10.1172 20.1177ZM63.3691 20.9995C63.5479 20.3328 64.2337 19.9371 64.9004 20.1157C65.5672 20.2945 65.963 20.9802 65.7842 21.647C65.6054 22.3138 64.9197 22.7095 64.2529 22.5308C63.5863 22.3519 63.1904 21.6662 63.3691 20.9995ZM68.7305 17.5854C69.2316 17.5195 69.7237 17.762 69.9766 18.1997C70.3217 18.7976 70.1164 19.5625 69.5186 19.9077C69.0807 20.1604 68.5339 20.1246 68.1328 19.8169C67.7317 19.5091 67.5557 18.9898 67.6865 18.5015C67.8175 18.0132 68.2293 17.6514 68.7305 17.5854ZM12.6035 16.0649C12.9284 15.6774 13.4552 15.5243 13.9375 15.6763C14.4197 15.8283 14.7626 16.2556 14.8066 16.7593C14.8506 17.263 14.5872 17.7437 14.1387 17.9771C13.69 18.2104 13.145 18.1501 12.7578 17.8247C12.2298 17.3809 12.1604 16.5935 12.6035 16.0649ZM61.5479 15.6177C61.8781 15.6468 62.1835 15.8059 62.3965 16.0601C62.8398 16.5891 62.7701 17.3774 62.2412 17.8208C61.7123 18.2641 60.924 18.1952 60.4805 17.6665C60.037 17.1375 60.1058 16.3483 60.6348 15.9048C60.8889 15.6917 61.2175 15.5886 61.5479 15.6177ZM8.77344 12.8452C9.2172 12.3171 10.0056 12.2488 10.5342 12.6919C10.9214 13.0168 11.0747 13.5428 10.9229 14.0249C10.7709 14.5071 10.3435 14.8509 9.83984 14.895C9.3361 14.939 8.85542 14.6747 8.62207 14.2261C8.38879 13.7775 8.44822 13.2324 8.77344 12.8452ZM56.6299 12.2075C57.0737 11.6789 57.8619 11.6105 58.3906 12.0542C58.9193 12.498 58.9886 13.2862 58.5449 13.8149C58.1012 14.3436 57.313 14.4127 56.7842 13.9692C56.5303 13.7562 56.3707 13.4508 56.3418 13.1206C56.313 12.7903 56.4167 12.4615 56.6299 12.2075ZM16.6104 12.0542C17.1389 11.6111 17.9264 11.6795 18.3701 12.2075C18.6954 12.5946 18.7556 13.1398 18.5225 13.5884C18.2892 14.0369 17.8083 14.3012 17.3047 14.2573C16.8009 14.2133 16.3727 13.8695 16.2207 13.3872C16.0689 12.905 16.2229 12.379 16.6104 12.0542ZM20.6719 9.56299C20.8508 8.89634 21.5364 8.50044 22.2031 8.6792C22.8698 8.85796 23.2655 9.54375 23.0869 10.2104C22.9081 10.8772 22.2224 11.273 21.5557 11.0942C20.8889 10.9155 20.4931 10.2298 20.6719 9.56299ZM13.3936 8.22314C13.9226 7.77973 14.7118 7.84941 15.1553 8.37842C15.5984 8.90742 15.5288 9.69574 15 10.1392C14.7459 10.3521 14.4172 10.4553 14.0869 10.4263C13.7568 10.3971 13.4521 10.2378 13.2393 9.98389C12.796 9.45488 12.8648 8.66661 13.3936 8.22314ZM60.6924 7.93604C61.0227 7.9072 61.3515 8.01092 61.6055 8.22412C62.1338 8.66803 62.2024 9.45627 61.7588 9.98486C61.3149 10.5136 60.5268 10.582 59.998 10.1382C59.4693 9.69437 59.4 8.90622 59.8438 8.37744C60.0569 8.12358 60.3622 7.9649 60.6924 7.93604ZM47.6592 6.45068C47.9598 6.30999 48.3043 6.29436 48.6162 6.40771C49.2647 6.64336 49.5993 7.35968 49.3643 8.0083C49.129 8.657 48.4125 8.99318 47.7637 8.7583C47.1148 8.52339 46.7792 7.80669 47.0137 7.15771C47.1264 6.84569 47.3587 6.59141 47.6592 6.45068ZM42.209 5.15088C42.4806 4.96079 42.8171 4.88614 43.1436 4.94385C43.8232 5.06408 44.2772 5.71247 44.1572 6.39209C44.0371 7.07172 43.3886 7.52558 42.709 7.40576C42.0292 7.28574 41.5754 6.6373 41.6953 5.95752C41.7529 5.63116 41.9375 5.34097 42.209 5.15088ZM31.8564 4.94385C32.3543 4.85603 32.8563 5.07704 33.1279 5.50342C33.3995 5.92982 33.3877 6.47799 33.0977 6.89209C32.8076 7.30627 32.2964 7.50459 31.8027 7.39502C31.3091 7.28545 30.9304 6.88912 30.8428 6.39111C30.7234 5.71161 31.177 5.06382 31.8564 4.94385ZM37.5 4.44971C38.1902 4.44974 38.7497 5.00959 38.75 5.69971C38.75 6.39004 38.1903 6.94967 37.5 6.94971C36.8096 6.94971 36.25 6.39006 36.25 5.69971C36.2503 5.00957 36.8098 4.44971 37.5 4.44971ZM54.8643 4.56494C55.2654 4.25721 55.8122 4.22133 56.25 4.47412C56.8478 4.81933 57.0522 5.58334 56.707 6.18115C56.4543 6.61898 55.9631 6.86136 55.4619 6.79541C54.9608 6.72944 54.549 6.36847 54.418 5.88037C54.2871 5.39201 54.4631 4.87271 54.8643 4.56494ZM25.1016 1.63623C25.7917 1.63636 26.3515 2.19604 26.3516 2.88623C26.3516 3.57651 25.7918 4.1361 25.1016 4.13623C24.4112 4.13623 23.8516 3.57659 23.8516 2.88623C23.8517 2.19596 24.4113 1.63623 25.1016 1.63623ZM49.8984 1.63623C50.5887 1.63623 51.1483 2.19596 51.1484 2.88623C51.1484 3.57659 50.5888 4.13623 49.8984 4.13623C49.2082 4.13607 48.6484 3.57648 48.6484 2.88623C48.6485 2.19606 49.2083 1.6364 49.8984 1.63623ZM30.9883 0.0200195C31.6678 -0.0995068 32.3165 0.35427 32.4365 1.03369C32.5244 1.53159 32.3033 2.03344 31.877 2.30518C31.4505 2.57689 30.9025 2.56497 30.4883 2.2749C30.0741 1.98483 29.8758 1.47359 29.9854 0.97998C30.0951 0.486719 30.4906 0.107716 30.9883 0.0200195ZM42.5645 1.03271C42.6847 0.353127 43.333 -0.0999852 44.0127 0.0200195C44.6922 0.140096 45.146 0.787702 45.0264 1.46729C44.9688 1.79387 44.7834 2.08477 44.5117 2.2749C44.24 2.46492 43.9036 2.53871 43.5771 2.48096C42.8977 2.36052 42.4443 1.71232 42.5645 1.03271Z" fill="rgb(66.3746,100.956,255)" fill-rule="nonzero" />
</svg>
