<?xml version="1.0" encoding="utf-8"?>
<!-- Generator: Adobe Illustrator 22.1.0, SVG Export Plug-In . SVG Version: 6.00 Build 0)  -->
<svg version="1.1" id="Шар_1" xmlns="http://www.w3.org/2000/svg" xmlns:xlink="http://www.w3.org/1999/xlink" x="0px" y="0px"
	 viewBox="0 0 328.1 918.4" style="enable-background:new 0 0 328.1 918.4;" xml:space="preserve">
<style type="text/css">
	.st0{fill:#4265FF;}
</style>
<g id="Group_2">
	<path id="Oval" class="st0" d="M-671.2-416.3c18.4,0,33.3-14.9,33.3-33.3c0-18.4-14.9-33.3-33.3-33.3c-18.4,0-33.3,14.9-33.3,33.3
		C-704.5-431.2-689.6-416.3-671.2-416.3z"/>
	<path id="Oval_1_" class="st0" d="M-671.2,1382.3c18.4,0,33.3-14.9,33.3-33.3c0-18.4-14.9-33.3-33.3-33.3
		c-18.4,0-33.3,14.9-33.3,33.3C-704.5,1367.4-689.6,1382.3-671.2,1382.3z"/>
	<path id="Oval_2_" class="st0" d="M-671.2,1249.1c18.4,0,33.3-14.9,33.3-33.3c0-18.4-14.9-33.3-33.3-33.3
		c-18.4,0-33.3,14.9-33.3,33.3C-704.5,1234.2-689.6,1249.1-671.2,1249.1z"/>
	<path id="Shape" class="st0" d="M-559.4-442.8c-3.2,18.1,8.9,35.4,27,38.6c18.1,3.2,35.4-8.9,38.6-27c3.2-18.1-8.9-35.4-27-38.6
		c-8.7-1.5-17.7,0.4-24.9,5.5C-552.9-459.2-557.9-451.5-559.4-442.8z"/>
	<path id="Shape_1_" class="st0" d="M-470.6-562.4c3.2-18.1-8.9-35.4-27-38.6c-18.1-3.2-35.4,8.9-38.6,27
		c-3.2,18.1,8.9,35.4,27,38.6c8.7,1.5,17.7-0.4,24.9-5.5C-477.1-546-472.2-553.7-470.6-562.4z"/>
	<path id="Shape_2_" class="st0" d="M-871.7,1328.6c-3.2,18.1,8.9,35.4,27,38.6c18.1,3.2,35.4-8.9,38.6-27
		c3.2-18.1-8.9-35.4-27-38.6c-8.7-1.5-17.7,0.4-24.9,5.5C-865.3,1312.1-870.2,1319.9-871.7,1328.6z"/>
	<path id="Shape_3_" class="st0" d="M-783,1208.9c3.2-18.1-8.9-35.4-27-38.6c-18.1-3.2-35.4,8.9-38.6,27c-3.2,18.1,8.9,35.4,27,38.6
		c8.7,1.5,17.7-0.4,24.9-5.5C-789.4,1225.4-784.5,1217.6-783,1208.9z"/>
	<path id="Shape_4_" class="st0" d="M-417.7-410.8c-6.3,17.3,2.7,36.4,20,42.6c17.3,6.3,36.4-2.7,42.7-20
		c6.3-17.3-2.7-36.4-19.9-42.7c-8.3-3-17.5-2.6-25.5,1.1C-408.5-425.9-414.7-419.1-417.7-410.8z"/>
	<path id="Oval_3_" class="st0" d="M-340.8-491.3c18.4,0,33.3-14.9,33.3-33.3c0-18.4-14.9-33.3-33.3-33.3
		c-18.4,0-33.3,14.9-33.3,33.3C-374.1-506.2-359.2-491.3-340.8-491.3z"/>
	<path id="Shape_5_" class="st0" d="M-990.2,1259.5c-17.3-6.3-36.4,2.7-42.6,20c-6.3,17.3,2.7,36.4,20,42.7
		c17.3,6.3,36.4-2.7,42.7-19.9c3-8.3,2.6-17.5-1.1-25.5C-975.1,1268.7-981.9,1262.5-990.2,1259.5z"/>
	<path id="Shape_6_" class="st0" d="M-171.6-482.3c-11.7-6.7-26.2-5.8-36.9,2.4c-10.7,8.2-15.4,22-11.9,35
		c3.5,13,14.5,22.6,27.8,24.4c13.4,1.8,26.5-4.7,33.2-16.4C-150.2-452.7-155.6-473.1-171.6-482.3z"/>
	<path id="Oval_4_" class="st0" d="M-1145.2,1251.9c17.8-4.8,28.3-23,23.5-40.8c-4.8-17.8-23-28.3-40.8-23.5
		c-17.8,4.8-28.3,23-23.5,40.8C-1181.2,1246.1-1162.9,1256.6-1145.2,1251.9z"/>
	<path id="Oval_5_" class="st0" d="M-1078.6,1136.4c17.8-4.8,28.3-23,23.5-40.8c-4.8-17.8-23-28.3-40.8-23.5
		c-17.8,4.8-28.3,23-23.5,40.8C-1114.6,1130.7-1096.3,1141.2-1078.6,1136.4z"/>
	<path id="Shape_7_" class="st0" d="M-157.3-229.3c14.1,11.8,35.1,10,46.9-4.1c11.8-14.1,10-35.1-4.1-46.9
		c-14.1-11.8-35.1-10-46.9,4.1c-5.7,6.8-8.4,15.5-7.7,24.3S-164.1-235-157.3-229.3z"/>
	<path id="Shape_8_" class="st0" d="M-75.8-378.3c-11.8,14.1-10,35.1,4.1,46.9c14.1,11.8,35.1,10,46.9-4.1
		c11.8-14.1,10-35.1-4.1-46.9c-6.8-5.7-15.5-8.4-24.3-7.7C-62-389.3-70.1-385-75.8-378.3z"/>
	<path id="Shape_9_" class="st0" d="M-1266.6,1144.5c11.8-14.1,10-35.1-4.1-46.9c-14.1-11.8-35.1-10-46.9,4.1
		c-11.8,14.1-10,35.1,4.1,46.9c6.8,5.7,15.5,8.4,24.3,7.7C-1280.4,1155.5-1272.3,1151.2-1266.6,1144.5z"/>
	<path id="Shape_10_" class="st0" d="M-54.7-177.7c-14.1,11.8-15.9,32.8-4.1,46.9c11.8,14.1,32.8,15.9,46.9,4.1
		C2.2-138.5,4-159.5-7.8-173.6c-5.7-6.8-13.8-11-22.6-11.8C-39.2-186.1-47.9-183.4-54.7-177.7z"/>
	<path id="Shape_11_" class="st0" d="M-1389.8,1029.5c10.3-8.7,14.4-22.7,10.4-35.5c-4.1-12.9-15.4-22-28.9-23.2
		c-13.4-1.2-26.2,5.8-32.5,17.8c-6.2,12-4.6,26.5,4.1,36.8C-1424.8,1039.5-1403.8,1041.3-1389.8,1029.5z"/>
	<path id="Shape_12_" class="st0" d="M-1287.7,943.9c14.1-11.8,15.9-32.8,4.1-46.9c-11.8-14.1-32.8-15.9-46.9-4.1
		c-14.1,11.8-15.9,32.8-4.1,46.9c5.7,6.8,13.8,11,22.6,11.8C-1303.2,952.3-1294.4,949.6-1287.7,943.9z"/>
	<path id="Oval_6_" class="st0" d="M82.5-24.7c4.8-17.8-5.8-36-23.5-40.8c-17.8-4.8-36,5.8-40.8,23.5s5.8,36,23.5,40.8
		S77.7-6.9,82.5-24.7z"/>
	<path id="Shape_13_" class="st0" d="M194.2-116.5c-6.7-11.7-19.8-18.1-33.2-16.4c-13.4,1.8-24.3,11.4-27.8,24.4
		c-3.5,13,1.2,26.8,11.9,35c10.7,8.2,25.3,9.2,36.9,2.4C197.9-80.2,203.4-100.6,194.2-116.5z"/>
	<path id="Shape_14_" class="st0" d="M-1536.6,882.7c6.7,11.7,19.8,18.1,33.2,16.4c13.4-1.8,24.3-11.4,27.8-24.4
		c3.5-13-1.2-26.8-11.9-35c-10.7-8.2-25.3-9.2-36.9-2.4C-1540.3,846.4-1545.8,866.8-1536.6,882.7z"/>
	<path id="Shape_15_" class="st0" d="M99.9,67C82.6,73.3,73.7,92.4,80,109.7c6.3,17.3,25.4,26.2,42.7,20c17.3-6.3,26.2-25.3,20-42.6
		c-3-8.3-9.2-15.1-17.2-18.8C117.4,64.4,108.2,64,99.9,67z"/>
	<path id="Shape_16_" class="st0" d="M247.9,84c17.3-6.3,26.2-25.4,19.9-42.7s-25.4-26.2-42.7-20s-26.2,25.3-20,42.6
		c3,8.3,9.2,15.1,17.2,18.8S239.6,87,247.9,84z"/>
	<path id="Shape_17_" class="st0" d="M-1567.5,744.8c17.3-6.3,26.2-25.4,19.9-42.7c-6.3-17.3-25.4-26.2-42.7-20
		c-17.3,6.3-26.2,25.3-20,42.6c3,8.3,9.2,15.1,17.2,18.8C-1585,747.4-1575.8,747.8-1567.5,744.8z"/>
	<path id="Shape_18_" class="st0" d="M-1442.3,699.2c17.3-6.3,26.2-25.4,19.9-42.7c-6.3-17.3-25.4-26.2-42.7-20
		c-17.3,6.3-26.2,25.3-20,42.6c3,8.3,9.2,15.1,17.2,18.9C-1459.8,701.8-1450.6,702.2-1442.3,699.2z"/>
	<path id="Shape_19_" class="st0" d="M312.9,209.6c-2.3-13.3-12.4-23.8-25.6-26.7c-13.2-2.9-26.8,2.4-34.5,13.4
		c-7.7,11-8,25.6-0.8,37c7.2,11.4,20.6,17.2,33.9,14.9C304,245,316.1,227.7,312.9,209.6z"/>
	<path id="Shape_20_" class="st0" d="M-1485.5,560.5c13.3-2.3,23.8-12.4,26.7-25.6c2.9-13.2-2.4-26.8-13.4-34.5
		c-11-7.7-25.6-8.1-37-0.8c-11.4,7.2-17.2,20.6-14.9,33.9C-1520.9,551.6-1503.6,563.7-1485.5,560.5z"/>
	<path id="Oval_7_" class="st0" d="M161.5,416.4c18.4,0,33.3-14.9,33.3-33.3c0-18.4-14.9-33.3-33.3-33.3
		c-18.4,0-33.3,14.9-33.3,33.3C128.2,401.5,143.1,416.4,161.5,416.4z"/>
	<path id="Oval_8_" class="st0" d="M294.8,416.4c18.4,0,33.3-14.9,33.3-33.3c0-18.4-14.9-33.3-33.3-33.3
		c-18.4,0-33.3,14.9-33.3,33.3C261.4,401.5,276.4,416.4,294.8,416.4z"/>
	<path id="Oval_9_" class="st0" d="M-1637.1,416.4c18.4,0,33.3-14.9,33.3-33.3c0-18.4-14.9-33.3-33.3-33.3
		c-18.4,0-33.3,14.9-33.3,33.3C-1670.4,401.5-1655.5,416.4-1637.1,416.4z"/>
	<path id="Oval_10_" class="st0" d="M-1503.9,416.4c18.4,0,33.3-14.9,33.3-33.3c0-18.4-14.9-33.3-33.3-33.3
		c-18.4,0-33.3,14.9-33.3,33.3C-1537.2,401.5-1522.3,416.4-1503.9,416.4z"/>
	<path id="Shape_21_" class="st0" d="M116.1,521.9c-3.2,18.1,8.9,35.4,27,38.6c18.1,3.2,35.4-8.9,38.6-27c3.2-18.1-8.9-35.4-27-38.6
		c-8.7-1.5-17.7,0.4-24.9,5.5C122.5,505.5,117.6,513.2,116.1,521.9z"/>
	<path id="Shape_22_" class="st0" d="M312.9,556.6c3.2-18.1-8.9-35.4-27-38.6c-18.1-3.2-35.4,8.9-38.6,27
		c-3.2,18.1,8.9,35.4,27,38.6c8.7,1.5,17.7-0.5,24.9-5.5C306.4,573,311.3,565.3,312.9,556.6z"/>
	<path id="Shape_23_" class="st0" d="M-1628.2,248.2c13.3,2.3,26.6-3.5,33.9-14.9c7.2-11.4,6.9-26-0.8-37
		c-7.7-11-21.3-16.3-34.5-13.4c-13.2,2.9-23.3,13.5-25.6,26.7C-1658.4,227.7-1646.3,245-1628.2,248.2z"/>
	<path id="Shape_24_" class="st0" d="M142.6,679.3c6.3-17.3-2.7-36.4-20-42.6c-17.3-6.3-36.4,2.7-42.7,20s2.7,36.4,19.9,42.7
		c8.3,3,17.5,2.6,25.5-1.1C133.4,694.4,139.6,687.6,142.6,679.3z"/>
	<path id="Shape_25_" class="st0" d="M-1590.3,84c17.3,6.2,36.4-2.7,42.6-20c6.3-17.3-2.7-36.4-20-42.7
		c-17.3-6.3-36.4,2.7-42.7,19.9c-3,8.3-2.6,17.5,1.1,25.5C-1605.4,74.8-1598.6,81-1590.3,84z"/>
	<path id="Shape_26_" class="st0" d="M-1485,86.9c-6.3,17.3,2.7,36.4,20,42.6c17.3,6.3,36.4-2.7,42.7-20
		c6.3-17.3-2.7-36.4-19.9-42.7c-8.3-3-17.5-2.6-25.5,1.1C-1475.8,71.8-1482,78.6-1485,86.9z"/>
	<path id="Oval_11_" class="st0" d="M59,831.4c17.8-4.8,28.3-23,23.5-40.8c-4.8-17.8-23-28.3-40.8-23.5c-17.8,4.8-28.3,23-23.5,40.8
		S41.2,836.2,59,831.4z"/>
	<path id="Shape_27_" class="st0" d="M148.7,894.9c11.7,6.7,26.2,5.8,36.9-2.4c10.7-8.2,15.4-22,11.9-35
		c-3.5-13-14.5-22.6-27.8-24.4c-13.4-1.8-26.5,4.7-33.2,16.4C127.3,865.3,132.8,885.7,148.7,894.9z"/>
	<path id="Oval_12_" class="st0" d="M-1383.6-1.1c17.8-4.8,28.3-23,23.5-40.8c-4.8-17.8-23-28.3-40.8-23.5
		c-17.8,4.8-28.3,23-23.5,40.8S-1401.4,3.7-1383.6-1.1z"/>
	<path id="Shape_28_" class="st0" d="M94.3,1025.4c8.7-10.3,10.3-24.8,4.1-36.8s-19-19-32.5-17.8C52.5,972,41.1,981.1,37,994
		c-4,12.8,0,26.9,10.4,35.5C61.5,1041.3,82.4,1039.5,94.3,1025.4z"/>
	<path id="Shape_29_" class="st0" d="M-1436.7-259.2c-8.7,10.3-10.3,24.8-4.1,36.8c6.2,12,19,19,32.5,17.8
		c13.4-1.2,24.8-10.3,28.9-23.2c4-12.9,0-26.9-10.4-35.5C-1403.8-275.1-1424.8-273.3-1436.7-259.2z"/>
	<path id="Shape_30_" class="st0" d="M-1330.5-126.5c10.3,8.7,24.8,10.3,36.8,4.1c12-6.2,19-19,17.8-32.5
		c-1.2-13.4-10.3-24.8-23.2-28.9c-12.9-4-26.9,0-35.5,10.4C-1346.4-159.3-1344.6-138.4-1330.5-126.5z"/>
	<path id="Shape_31_" class="st0" d="M-114.5,1046.5c10.3-8.7,14.4-22.7,10.4-35.5c-4.1-12.8-15.5-22-28.9-23.2
		c-13.4-1.2-26.2,5.9-32.5,17.8c-6.2,12-4.6,26.5,4.1,36.8C-149.6,1056.5-128.6,1058.3-114.5,1046.5z"/>
	<path id="Shape_32_" class="st0" d="M-1270.7-331.3c14.1-11.8,15.9-32.8,4.1-46.9c-11.8-14.1-32.8-15.9-46.9-4.1
		c-14.1,11.8-15.9,32.8-4.1,46.9c5.7,6.8,13.8,11,22.6,11.8S-1277.5-325.7-1270.7-331.3z"/>
	<path id="Shape_33_" class="st0" d="M-1227.8-280.3c-10.3,8.7-14.4,22.7-10.4,35.5c4.1,12.9,15.4,22,28.9,23.2
		c13.4,1.2,26.2-5.9,32.5-17.8c6.2-12,4.6-26.5-4.1-36.8C-1192.8-290.3-1213.8-292.1-1227.8-280.3z"/>
	<path id="Oval_13_" class="st0" d="M-222.3,1113.1c4.8-17.8-5.8-36-23.5-40.8c-17.8-4.8-36,5.8-40.8,23.5
		c-4.8,17.8,5.8,36,23.5,40.8S-227,1130.8-222.3,1113.1z"/>
	<path id="Oval_14_" class="st0" d="M-155.6,1228.5c4.8-17.8-5.8-36-23.5-40.8c-17.8-4.8-36,5.8-40.8,23.5
		c-4.8,17.8,5.8,36,23.5,40.8S-160.4,1246.3-155.6,1228.5z"/>
	<path id="Oval_15_" class="st0" d="M-1055.3-329.4c4.8-17.8-5.8-36-23.5-40.8c-17.8-4.8-36,5.8-40.8,23.5s5.8,36,23.5,40.8
		C-1078.3-301.1-1060-311.7-1055.3-329.4z"/>
	<path id="Shape_34_" class="st0" d="M-355.1,1154.2c-6.3-17.3-25.4-26.2-42.7-19.9c-17.3,6.3-26.2,25.4-20,42.7
		c6.3,17.3,25.3,26.2,42.6,20c8.3-3,15.1-9.2,18.8-17.2C-352.5,1171.7-352.1,1162.5-355.1,1154.2z"/>
	<path id="Shape_35_" class="st0" d="M-329.4,1322.1c17.3-6.3,26.2-25.4,19.9-42.7c-6.3-17.3-25.4-26.2-42.7-20
		c-17.3,6.3-26.2,25.3-20,42.6c3,8.3,9.2,15.1,17.2,18.8S-337.7,1325.1-329.4,1322.1z"/>
	<path id="Oval_16_" class="st0" d="M-1001.6-491.3c18.4,0,33.3-14.9,33.3-33.3c0-18.4-14.9-33.3-33.3-33.3s-33.3,14.9-33.3,33.3
		C-1034.9-506.2-1020-491.3-1001.6-491.3z"/>
	<path id="Shape_36_" class="st0" d="M-493.8,1197.4c-2.3-13.3-12.4-23.8-25.6-26.8c-13.1-2.9-26.8,2.4-34.5,13.4
		c-7.7,11-8,25.6-0.8,37c7.2,11.4,20.6,17.2,33.9,14.9C-502.7,1232.8-490.6,1215.5-493.8,1197.4z"/>
	<path id="Shape_37_" class="st0" d="M-844.7-601c-13.3,2.3-23.8,12.4-26.7,25.6c-2.9,13.2,2.4,26.8,13.4,34.5c11,7.7,25.6,8,37,0.8
		c11.4-7.2,17.2-20.6,14.9-33.9C-809.3-592.1-826.6-604.2-844.7-601z"/>
	<path id="Shape_38_" class="st0" d="M-848.6-431.2c2.3,13.3,12.4,23.8,25.6,26.7c13.2,2.9,26.8-2.4,34.5-13.4c7.7-11,8-25.6,0.8-37
		c-7.2-11.4-20.6-17.2-33.9-14.9C-839.7-466.6-851.8-449.3-848.6-431.2z"/>
</g>
</svg>
