<svg viewBox="0 0 1234 932" xmlns="http://www.w3.org/2000/svg" xmlns:xlink="http://www.w3.org/1999/xlink" width="1234.000000" height="932.000061" fill="none" customFrame="#000000">
	<path id="XMLID_10_" d="M625.583 19.8834C645.379 3.13461 671.367 -1.02971 696.511 0.200933C839.116 0.863319 981.815 -0.650538 1124.42 1.05249C1071.97 53.0027 1020.75 106.184 968.305 158.134C951.23 175.451 928.057 186.143 903.476 184.724C797.18 185.292 690.789 184.724 584.398 184.913C542.367 185.292 499.491 181.601 458.586 193.051C428.189 203.271 407.362 229.293 384.845 250.774C349.1 288.53 310.54 323.731 276.671 363.285C296.092 374.641 318.889 371.329 340.375 371.707C474.911 371.613 609.541 371.234 744.078 371.802C772.411 370.951 799.712 384.103 819.227 404.259C856.66 442.205 893.626 480.623 931.622 518.095C953.95 540.049 983.035 558.028 1015.21 557.933C1088.11 558.407 1161.1 557.271 1234 558.407C1188.69 604.206 1143 649.722 1098.15 695.995C1077.23 716.529 1054.43 739.618 1023.85 743.213C958.548 746.809 892.874 741.51 827.577 745.674C800.932 747.282 774.381 756.272 754.586 774.819C707.207 818.442 662.549 865.093 613.2 906.445C591.809 924.236 564.133 932.089 536.832 931.9C394.133 932.278 251.341 931.427 108.642 931.9C160.336 878.53 212.969 826.012 265.226 773.211C286.429 750.027 319.078 743.592 349.194 743.971C480.635 743.782 612.075 744.633 743.516 743.592C800.183 742.552 833.863 691.358 871.109 656.062C899.536 625.024 934.343 599.096 956.203 562.381C795.116 554.148 633.278 562.759 472.097 557.933C450.707 553.864 431.473 542.414 416.088 527.18C376.215 488.477 338.124 447.881 298.438 408.99C277.517 387.982 249.371 372.559 219.255 372.653C146.17 371.801 73.0853 372.748 0 372.369C47.6595 323.162 96.2582 274.808 144.294 225.791C165.778 202.229 194.863 185.386 227.23 184.533C289.807 182.924 352.384 185.196 414.962 183.871C451.457 184.912 478.008 156.145 503.245 133.624C544.148 95.8695 582.521 55.1798 625.583 19.8834Z" fill="rgb(66.3746,100.956,255)" fill-rule="nonzero" transform="matrix(-1,0,0,-1,1234,932)" />
</svg>
