<svg viewBox="0 0 46 46" xmlns="http://www.w3.org/2000/svg" xmlns:xlink="http://www.w3.org/1999/xlink" width="46.000000" height="46.000000" fill="none">
	<rect id="fi_3415723" width="46.000000" height="46.000000" x="0.000000" y="0.000000" fill="rgb(255,255,255)" fill-opacity="0" />
	<path id="Vector" d="M40.9285 5.07164C40.7988 4.94217 40.6348 4.8526 40.4557 4.81354C40.2767 4.77447 40.0902 4.78755 39.9184 4.85122L3.50176 18.2679C3.32648 18.3326 3.17394 18.4471 3.0629 18.5974C2.95187 18.7476 2.88717 18.9271 2.87679 19.1136C2.8664 19.3002 2.91077 19.4857 3.00444 19.6474C3.09811 19.809 3.237 19.9398 3.40401 20.0236L14.904 25.7736C15.0373 25.8403 15.1843 25.8751 15.3333 25.8751C15.4824 25.8751 15.6294 25.8403 15.7627 25.7736L24.6905 21.3096L20.2266 30.2375C20.1598 30.3707 20.125 30.5177 20.125 30.6668C20.125 30.8159 20.1598 30.9629 20.2266 31.0961L25.9766 42.5961C26.0563 42.7551 26.1786 42.8888 26.3299 42.9822C26.4812 43.0756 26.6555 43.1251 26.8333 43.1251L26.887 43.1251C27.0735 43.1147 27.2528 43.0499 27.4029 42.9389C27.5531 42.8279 27.6676 42.6755 27.7323 42.5003L41.1489 6.08364C41.213 5.91156 41.2263 5.7247 41.1872 5.54529C41.1481 5.36589 41.0583 5.20148 40.9285 5.07164Z" fill="rgb(66.3746,100.956,255)" fill-rule="nonzero" />
</svg>
