<svg viewBox="0 0 46 46" xmlns="http://www.w3.org/2000/svg" xmlns:xlink="http://www.w3.org/1999/xlink" width="46.000000" height="46.000000" fill="none">
	<rect id="fi_3059502" width="46.000000" height="46.000000" x="0.000000" y="0.000000" fill="rgb(255,255,255)" fill-opacity="0" />
	<path id="Vector" d="M42.2524 33.58C40.9961 32.5263 33.6274 27.8602 32.4027 28.0744C31.8277 28.1764 31.3878 28.6666 30.2105 30.0711C29.666 30.7623 29.0681 31.4098 28.4222 32.0074C27.2389 31.7215 26.0934 31.2969 25.0096 30.7424C20.7593 28.6731 17.3257 25.2384 15.2576 20.9875C14.7031 19.9037 14.2785 18.7582 13.9926 17.5749C14.5902 16.929 15.2377 16.3311 15.9289 15.7866C17.3319 14.6093 17.8236 14.1723 17.9256 13.5944C18.1398 12.3668 13.4694 5.00106 12.42 3.74469C11.9801 3.22431 11.5805 2.875 11.0687 2.875C9.58525 2.875 2.875 11.1723 2.875 12.2475C2.875 12.3352 3.01875 20.9731 13.9279 32.0721C25.0269 42.9813 33.6648 43.125 33.7525 43.125C34.8278 43.125 43.125 36.4147 43.125 34.9312C43.125 34.4195 42.7757 34.0199 42.2524 33.58Z" fill="rgb(66.3746,100.956,255)" fill-rule="nonzero" />
	<path id="Vector" d="M33.0625 21.5625L35.9375 21.5625C35.9341 18.5136 34.7214 15.5905 32.5654 13.4346C30.4095 11.2786 27.4864 10.0659 24.4375 10.0625L24.4375 12.9375C26.7243 12.9398 28.9168 13.8492 30.5338 15.4662C32.1508 17.0832 33.0602 19.2757 33.0625 21.5625Z" fill="rgb(66.3746,100.956,255)" fill-rule="nonzero" />
	<path id="Vector" d="M40.25 21.5625L43.125 21.5625C43.1193 16.608 41.1486 11.8581 37.6453 8.35474C34.1419 4.8514 29.392 2.88071 24.4375 2.875L24.4375 5.75C28.6297 5.75495 32.6488 7.42249 35.6132 10.3868C38.5775 13.3512 40.2451 17.3703 40.25 21.5625Z" fill="rgb(66.3746,100.956,255)" fill-rule="nonzero" />
</svg>
