<svg viewBox="0 0 40 40" xmlns="http://www.w3.org/2000/svg" xmlns:xlink="http://www.w3.org/1999/xlink" width="40.000000" height="40.000000" fill="none">
	<rect id="fi_1621898" width="40.000000" height="40.000000" x="0.000000" y="0.000000" fill="rgb(255,255,255)" fill-opacity="0" />
	<path id="Vector" d="M40 20C40 25.3421 37.9196 30.3647 34.1422 34.1422C33.837 34.4473 33.4372 34.5999 33.0374 34.5999C32.6373 34.5999 32.2375 34.4473 31.9324 34.1422C31.3223 33.5318 31.3223 32.5427 31.9324 31.9324C38.512 25.3528 38.512 14.6472 31.9324 8.06763C25.3528 1.48804 14.6472 1.48804 8.06763 8.06763C1.48804 14.6472 1.48804 25.3528 8.06763 31.9324C8.67767 32.5427 8.67767 33.5321 8.06763 34.1422C7.45728 34.7522 6.4679 34.7522 5.85785 34.1422C2.08038 30.3647 0 25.3421 0 20C0 14.6579 2.08038 9.63531 5.85785 5.85785C9.63531 2.08038 14.6579 0 20 0C25.3421 0 30.3647 2.08038 34.1422 5.85785C37.9196 9.63531 40 14.6579 40 20ZM14.6967 14.6967C12.8046 16.5887 12.0621 19.3704 12.7588 21.9565C12.9831 22.7899 13.8406 23.2834 14.6738 23.0588C15.5072 22.8342 16.0007 21.9769 15.7761 21.1435C15.3693 19.6338 15.8026 18.0103 16.9064 16.9064C18.6121 15.2005 21.3876 15.2005 23.0936 16.9064C24.1974 18.0103 24.6307 19.6338 24.2239 21.1435C23.9993 21.9769 24.4931 22.8342 25.3262 23.0588C25.4623 23.0954 25.5991 23.1131 25.7336 23.1128C26.4227 23.1128 27.0535 22.6535 27.2412 21.9565C27.9379 19.3704 27.1951 16.5887 25.3033 14.6967C22.3792 11.7725 17.6208 11.7725 14.6967 14.6967ZM33.7363 19.3854C33.5834 15.947 32.1579 12.7124 29.7226 10.2774C24.3616 4.91608 15.6384 4.91608 10.2774 10.2774C5.32806 15.2264 4.87854 23.0829 9.23157 28.5519C9.76898 29.227 10.752 29.3387 11.427 28.8013C12.1024 28.2639 12.2141 27.2809 11.6766 26.6058C8.31421 22.3813 8.66241 16.3113 12.4872 12.4872C16.6296 8.34442 23.3704 8.34442 27.5131 12.4872C31.4102 16.3843 31.7044 22.5204 28.1976 26.7609C27.6477 27.4258 27.7408 28.4106 28.4058 28.9606C28.6972 29.2017 29.05 29.3192 29.4006 29.3192C29.8505 29.3192 30.2969 29.126 30.6058 28.7524C32.7765 26.1276 33.8882 22.8009 33.7363 19.3854ZM25.3125 36.875L21.5625 36.875L21.5625 20C21.5625 19.137 20.863 18.4375 20 18.4375C19.137 18.4375 18.4375 19.137 18.4375 20L18.4375 36.875L14.6875 36.875C13.8245 36.875 13.125 37.5745 13.125 38.4375C13.125 39.3005 13.8245 40 14.6875 40L25.3125 40C26.1755 40 26.875 39.3005 26.875 38.4375C26.875 37.5745 26.1755 36.875 25.3125 36.875Z" fill="rgb(66.3746,100.956,255)" fill-rule="nonzero" />
</svg>
